<?xml version="1.0" standalone="no"?>
<!DOCTYPE svg PUBLIC "-//W3C//DTD SVG 20010904//EN"
 "http://www.w3.org/TR/2001/REC-SVG-20010904/DTD/svg10.dtd">
<svg version="1.0" xmlns="http://www.w3.org/2000/svg"
 width="180.000000pt" height="180.000000pt" viewBox="0 0 180.000000 180.000000"
 preserveAspectRatio="xMidYMid meet">
<metadata>
Created by potrace 1.14, written by Peter Selinger 2001-2017
</metadata>
<g transform="translate(0.000000,180.000000) scale(0.100000,-0.100000)"
fill="#000000" stroke="none">
<path d="M300 1300 c0 -248 13 -290 100 -326 34 -14 175 -20 227 -10 68 14
148 75 184 141 35 62 36 173 3 242 -30 63 -85 112 -151 136 -38 13 -81 17
-205 17 l-158 0 0 -200z m329 64 c106 -44 119 -187 22 -246 -30 -19 -50 -23
-126 -23 l-90 0 -1 135 c-1 88 2 137 9 142 19 12 151 6 186 -8z"/>
<path d="M1150 1491 c-71 -22 -144 -84 -177 -150 -26 -53 -24 -173 4 -227 50
-94 127 -144 234 -152 56 -4 75 -1 120 20 112 51 164 131 163 248 -1 114 -50
192 -153 243 -56 28 -134 35 -191 18z m165 -127 c40 -26 66 -78 67 -134 3
-107 -99 -185 -200 -155 -54 17 -80 39 -102 88 -22 48 -17 108 11 154 27 43
55 62 110 72 46 8 72 2 114 -25z"/>
<path d="M522 830 c-57 -26 -117 -84 -143 -138 -21 -42 -23 -63 -25 -214 -2
-183 -2 -183 54 -154 48 25 60 60 61 184 1 63 6 123 11 135 26 63 81 95 172
100 75 5 112 25 127 69 6 17 11 33 11 35 0 2 -51 3 -114 2 -85 -1 -124 -6
-154 -19z"/>
<path d="M1169 845 c-3 -2 -14 -6 -25 -8 -32 -5 -87 -38 -117 -70 -53 -57 -71
-105 -72 -187 0 -87 18 -133 75 -190 68 -68 94 -75 294 -78 l178 -3 -4 173
c-3 153 -6 178 -25 214 -49 92 -146 154 -244 154 -31 0 -58 -2 -60 -5z m131
-122 c69 -47 82 -81 84 -216 l1 -87 -40 -1 c-116 -2 -167 2 -192 15 -57 29
-91 90 -87 153 7 92 70 153 159 153 31 0 60 -7 75 -17z"/>
</g>
</svg>
